<?xml version="1.0" standalone="no"?> <!DOCTYPE svg PUBLIC "-//W3C//DTD SVG 20010904//EN" "http://www.w3.org/TR/2001/REC-SVG-20010904/DTD/svg10.dtd"> <svg version="1.0" xmlns="http://www.w3.org/2000/svg" width="512.000000pt" height="512.000000pt" viewBox="0 0 512.000000 512.000000" preserveAspectRatio="xMidYMid meet"> <g transform="translate(0.000000,512.000000) scale(0.050000,-0.050000)" fill="#6622cc" stroke="none"> <path d="M3320 10203 c-141 -75 -217 -324 -234 -773 -31 -821 327 -1578 987 -2083 l148 -113 -76 -50 c-41 -27 -95 -67 -119 -89 l-43 -39 -127 90 c-1171 830 -2784 4 -2782 -1426 2 -681 404 -1319 1003 -1589 81 -36 85 -42 74 -104 -167 -887 307 -1769 1094 -2036 l115 -39 0 -174 c0 -1397 1514 -2240 2700 -1502 491 305 785 824 814 1434 l11 240 147 58 c524 203 939 705 1062 1282 29 139 27 626 -4 750 -12 45 -2 56 104 107 840 411 1210 1455 817 2306 -463 1001 -1723 1334 -2625 694 l-124 -88 -106 81 c-170 129 -558 300 -679 300 -46 0 -46 12 3 215 161 674 724 1156 1509 1293 258 45 367 154 346 344 -24 216 -169 292 -460 242 -678 -116 -1296 -487 -1651 -992 -55 -79 -105 -136 -110 -128 -5 9 -25 66 -44 126 -280 868 -1343 1879 -1750 1663z m652 -1007 c375 -388 677 -1057 644 -1431 l-6 -69 -127 93 c-483 357 -767 873 -797 1450 l-12 229 78 -62 c43 -35 142 -129 220 -210z m-867 -2355 c171 -43 314 -111 411 -194 l65 -57 -67 -160 c-208 -489 -200 -985 21 -1466 l49 -107 -44 -47 c-340 -362 -1118 -311 -1530 100 -821 818 -27 2218 1095 1931z m2257 10 c585 -124 988 -704 902 -1296 -136 -937 -1284 -1319 -1953 -650 -814 813 -73 2185 1051 1946z m2420 -36 c819 -299 1053 -1298 448 -1906 -409 -410 -1093 -462 -1508 -114 l-68 58 50 108 c221 482 229 981 22 1469 l-67 160 65 57 c253 217 721 292 1058 168z m-3681 -2524 c132 -97 270 -169 439 -230 69 -25 107 -49 102 -65 -56 -178 -17 -679 73 -944 l54 -158 -124 -114 c-742 -682 -1943 -135 -1929 879 4 288 5 288 215 306 350 29 685 149 931 335 128 96 94 97 239 -9z m2280 6 c240 -182 579 -303 928 -332 212 -18 212 -17 213 -325 6 -1145 -1492 -1593 -2122 -634 -210 321 -256 953 -70 969 266 25 661 187 860 353 76 64 62 66 191 -31z m-1001 -2110 c211 -144 480 -250 741 -290 l159 -24 0 -111 c-2 -631 -536 -1161 -1170 -1161 -618 -1 -1148 535 -1150 1162 l0 112 115 14 c319 37 639 172 896 379 l159 128 80 -74 c44 -40 121 -101 170 -135z"/> </g> </svg>